# xmcd CD database file
# Copyright (C) 1993-1998 Ti Kan
# 
# Track frame offsets:
#     150
#     15922
#     34645
#     51377
#     68947
#     83492
#     104842
#     119097
#     130972
#     144797
#     160285
#     180415
#     196015
#     200960
# 
# Disc length: 2928 seconds
# 
# Revision: 1
# Processed by: cddbd v1.4b41PL1 Copyright (c) Steve Scherf et al.
# Submitted via: DiscPlay 4.0.4
# 
DISCID=c20b6e0e
DTITLE=Sylvia Tyson - You Were On My Mind
DYEAR=1900
DGENRE=
TTITLE0=Pepere's Mill
TTITLE1=Slow-moving Heart
TTITLE2=Rhythm of the Road
TTITLE3=Walking on the Moon
TTITLE4=Thrown to the Wolves
TTITLE5=The Night the Chinese Restaurant Burned Down
TTITLE6=You Were on My Mind
TTITLE7=Sleep on My Shoulder
TTITLE8=Trucker's Cafe
TTITLE9=River Road
TTITLE10=Last Call
TTITLE11=Le Moulin a Pepere
TTITLE12=Reprise
TTITLE13=The Blind Fiddler's Waltz
EXTD=
EXTT0=
EXTT1=
EXTT2=
EXTT3=
EXTT4=
EXTT5=
EXTT6=
EXTT7=
EXTT8=
EXTT9=
EXTT10=
EXTT11=
EXTT12=
EXTT13=
PLAYORDER=
